<svg width="558.3px" height="106.4px" xmlns="http://www.w3.org/2000/svg" viewBox="-29.12812500000001 21.800000000000004 558.25625 106.39999999999999" style="background: rgba(0, 0, 0, 0)" preserveAspectRatio="xMidYMid"><defs><linearGradient id="editing-gradient-gradient" x1="0" x2="1" y1="0.5" y2="0.5" gradientUnits="objectBoundingBox"><stop offset="0" stop-color="#00dada"></stop><stop offset="1" stop-color="#ff00ff"></stop></linearGradient></defs><g><g transform="matrix(1.3,0,0,1.4,9.5,146.5)"><path d="M -6.1 -37.1 L -17.8 -37.1 L -11 -72.8 L 0.9 -72.8 L -6.1 -37.1 Z M 41 -36.1 L 41 -36.1 L 41 -36.1 Q 34.4 -36.1 34.4 -41.1 L 34.4 -41.1 L 34.4 -41.1 Q 34.4 -43.4 35.4 -47.6 L 35.4 -47.6 L 35.4 -47.6 Q 36.3 -51.9 36.7 -53.7 L 36.7 -53.7 L 36.7 -53.7 Q 37.4 -57.6 37.4 -58.9 L 37.4 -58.9 L 37.4 -58.9 Q 37.4 -61.6 35.4 -61.6 L 35.4 -61.6 L 35.4 -61.6 Q 34 -61.6 32.7 -59.7 L 32.7 -59.7 L 32.7 -59.7 Q 31.4 -57.9 30.8 -54.2 L 30.8 -54.2 L 27.5 -37.1 L 16.9 -36.1 L 19.9 -50.8 L 19.9 -50.8 Q 20.3 -53.2 20.8 -55.9 L 20.8 -55.9 L 20.8 -55.9 Q 21.2 -58.7 21.2 -59.1 L 21.2 -59.1 L 21.2 -59.1 Q 21.2 -61.6 19.4 -61.6 L 19.4 -61.6 L 19.4 -61.6 Q 18.1 -61.6 16.8 -59.8 L 16.8 -59.8 L 16.8 -59.8 Q 15.4 -57.9 14.7 -54.2 L 14.7 -54.2 L 11.4 -37.1 L 0.7 -36.1 L 6.4 -64.7 L 15.2 -65.8 L 14.3 -60.3 L 14.3 -60.3 Q 15.7 -63.2 18.3 -64.5 L 18.3 -64.5 L 18.3 -64.5 Q 20.9 -65.8 24.9 -65.8 L 24.9 -65.8 L 24.9 -65.8 Q 27.3 -65.8 28.8 -64.6 L 28.8 -64.6 L 28.8 -64.6 Q 30.3 -63.5 30.8 -61.7 L 30.8 -61.7 L 30.8 -61.7 Q 31.7 -63.6 34 -64.7 L 34 -64.7 L 34 -64.7 Q 36.4 -65.8 39.3 -65.8 L 39.3 -65.8 L 39.3 -65.8 Q 42.2 -65.8 43.6 -65.1 L 43.6 -65.1 L 43.6 -65.1 Q 45 -64.5 45.9 -63.5 L 45.9 -63.5 L 45.9 -63.5 Q 47.3 -61.6 47.3 -58.2 L 47.3 -58.2 L 47.3 -58.2 Q 47.3 -54.7 45.9 -47.7 L 45.9 -47.7 L 45.9 -47.7 Q 45.1 -44.2 45.1 -42.9 L 45.1 -42.9 L 45.1 -42.9 Q 45.1 -41.7 45.9 -40.9 L 45.9 -40.9 L 45.9 -40.9 Q 46.6 -40.2 47.7 -40.1 L 47.7 -40.1 L 47.7 -40.1 Q 47.1 -38.2 45.3 -37.1 L 45.3 -37.1 L 45.3 -37.1 Q 43.4 -36.1 41 -36.1 Z M 54.2 -38.8 L 54.2 -38.8 L 54.2 -38.8 Q 52.9 -40.2 52.3 -42.4 L 52.3 -42.4 L 52.3 -42.4 Q 51.8 -44.6 51.8 -48.2 L 51.8 -48.2 L 51.8 -48.2 Q 51.8 -51.8 53 -55.1 L 53 -55.1 L 53 -55.1 Q 54.3 -58.4 56.5 -60.8 L 56.5 -60.8 L 56.5 -60.8 Q 61.2 -65.8 68.8 -65.8 L 68.8 -65.8 L 68.8 -65.8 Q 71.6 -65.8 73.6 -64.8 L 73.6 -64.8 L 82.8 -65.8 L 78.8 -44.7 L 78.8 -44.7 Q 78.7 -44.1 78.7 -42.9 L 78.7 -42.9 L 78.7 -42.9 Q 78.7 -41.7 79.4 -40.9 L 79.4 -40.9 L 79.4 -40.9 Q 80.1 -40.2 81.2 -40.1 L 81.2 -40.1 L 81.2 -40.1 Q 80.7 -38.2 78.7 -37.1 L 78.7 -37.1 L 78.7 -37.1 Q 76.7 -36.1 74.5 -36.1 L 74.5 -36.1 L 74.5 -36.1 Q 72.3 -36.1 70.8 -36.9 L 70.8 -36.9 L 70.8 -36.9 Q 69.3 -37.7 68.9 -39.1 L 68.9 -39.1 L 68.9 -39.1 Q 68 -37.8 66.2 -36.9 L 66.2 -36.9 L 66.2 -36.9 Q 64.4 -36.1 61.9 -36.1 L 61.9 -36.1 L 61.9 -36.1 Q 59.4 -36.1 57.4 -36.7 L 57.4 -36.7 L 57.4 -36.7 Q 55.4 -37.4 54.2 -38.8 Z M 65.6 -60.7 L 65.6 -60.7 L 65.6 -60.7 Q 65 -59.7 64.4 -58.1 L 64.4 -58.1 L 64.4 -58.1 Q 63.9 -56.4 63 -52 L 63 -52 L 63 -52 Q 62.1 -47.6 62.1 -44.5 L 62.1 -44.5 L 62.1 -44.5 Q 62.1 -41.4 62.6 -40.4 L 62.6 -40.4 L 62.6 -40.4 Q 63.1 -39.5 63.9 -39.5 L 63.9 -39.5 L 63.9 -39.5 Q 65.7 -39.5 66.9 -41.2 L 66.9 -41.2 L 66.9 -41.2 Q 68.2 -42.8 68.7 -45.7 L 68.7 -45.7 L 71.5 -61.6 L 71.5 -61.6 Q 70.4 -62.5 69.1 -62.5 L 69.1 -62.5 L 69.1 -62.5 Q 67.8 -62.5 67 -62.1 L 67 -62.1 L 67 -62.1 Q 66.2 -61.7 65.6 -60.7 Z M 89.4 -59.7 L 89.4 -59.7 L 89.4 -59.7 Q 91.2 -62.3 94 -64 L 94 -64 L 94 -64 Q 96.8 -65.8 100.2 -65.8 L 100.2 -65.8 L 100.2 -65.8 Q 103.6 -65.8 105.2 -64.7 L 105.2 -64.7 L 115.8 -65.8 L 112.1 -45 L 112.1 -45 Q 110.2 -34.4 106.2 -30.3 L 106.2 -30.3 L 106.2 -30.3 Q 102.4 -26.3 94.9 -26.3 L 94.9 -26.3 L 94.9 -26.3 Q 89.3 -26.3 86 -28.1 L 86 -28.1 L 86 -28.1 Q 82.8 -29.9 82.8 -32.9 L 82.8 -32.9 L 82.8 -32.9 Q 82.8 -35.1 84.4 -36.4 L 84.4 -36.4 L 84.4 -36.4 Q 86.1 -37.6 88.7 -37.6 L 88.7 -37.6 L 88.7 -37.6 Q 91 -37.6 92.7 -36.6 L 92.7 -36.6 L 92.7 -36.6 Q 93.7 -36.1 94.2 -35.3 L 94.2 -35.3 L 94.2 -35.3 Q 93 -34.2 93 -32.4 L 93 -32.4 L 93 -32.4 Q 93 -30.1 95.1 -30.1 L 95.1 -30.1 L 95.1 -30.1 Q 98.8 -30.1 100.8 -38.7 L 100.8 -38.7 L 100.8 -38.7 Q 101.4 -41 101.9 -43.3 L 101.9 -43.3 L 101.9 -43.3 Q 99.5 -40.3 93.9 -40.3 L 93.9 -40.3 L 93.9 -40.3 Q 90.1 -40.3 87.9 -42.2 L 87.9 -42.2 L 87.9 -42.2 Q 85.7 -44 85.7 -48.3 L 85.7 -48.3 L 85.7 -48.3 Q 85.7 -51 86.6 -54.1 L 86.6 -54.1 L 86.6 -54.1 Q 87.5 -57.1 89.4 -59.7 Z M 96.4 -48.2 L 96.4 -48.2 L 96.4 -48.2 Q 96.4 -44.5 98.3 -44.5 L 98.3 -44.5 L 98.3 -44.5 Q 99.6 -44.5 100.8 -45.9 L 100.8 -45.9 L 100.8 -45.9 Q 101.8 -47 102.2 -48.7 L 102.2 -48.7 L 104.9 -62.6 L 104.9 -62.6 Q 104.6 -62.6 104.4 -62.7 L 104.4 -62.7 L 104.4 -62.7 Q 103.8 -63 103.1 -63 L 103.1 -63 L 103.1 -63 Q 99.8 -63 97.9 -57.6 L 97.9 -57.6 L 97.9 -57.6 Q 96.4 -53.3 96.4 -48.2 Z M 139.7 -46.3 L 139.7 -46.3 L 139.7 -46.3 Q 141.1 -45.4 141.1 -43.3 L 141.1 -43.3 L 141.1 -43.3 Q 141.1 -41.3 140.1 -40 L 140.1 -40 L 140.1 -40 Q 139 -38.7 137.4 -37.8 L 137.4 -37.8 L 137.4 -37.8 Q 133.9 -36.1 130.2 -36.1 L 130.2 -36.1 L 130.2 -36.1 Q 126.5 -36.1 124.3 -36.9 L 124.3 -36.9 L 124.3 -36.9 Q 122.1 -37.7 120.6 -39.2 L 120.6 -39.2 L 120.6 -39.2 Q 117.8 -42.1 117.8 -47.3 L 117.8 -47.3 L 117.8 -47.3 Q 117.8 -55.5 122.2 -60.4 L 122.2 -60.4 L 122.2 -60.4 Q 126.9 -65.8 135.2 -65.8 L 135.2 -65.8 L 135.2 -65.8 Q 140.3 -65.8 142.9 -63.6 L 142.9 -63.6 L 142.9 -63.6 Q 144.8 -62 144.8 -59.3 L 144.8 -59.3 L 144.8 -59.3 Q 144.8 -49.8 128.3 -49.8 L 128.3 -49.8 L 128.3 -49.8 Q 128.1 -48.4 128.1 -47.2 L 128.1 -47.2 L 128.1 -47.2 Q 128.1 -44.8 129.2 -43.8 L 129.2 -43.8 L 129.2 -43.8 Q 130.3 -42.9 132.4 -42.9 L 132.4 -42.9 L 132.4 -42.9 Q 134.4 -42.9 136.6 -43.8 L 136.6 -43.8 L 136.6 -43.8 Q 138.8 -44.8 139.7 -46.3 Z M 128.7 -52.2 L 128.7 -52.2 L 128.7 -52.2 Q 132.6 -52.2 134.8 -54.5 L 134.8 -54.5 L 134.8 -54.5 Q 137 -56.8 137 -60.4 L 137 -60.4 L 137 -60.4 Q 137 -61.7 136.5 -62.3 L 136.5 -62.3 L 136.5 -62.3 Q 136.1 -63 135.2 -63 L 135.2 -63 L 135.2 -63 Q 134.2 -63 133.5 -62.7 L 133.5 -62.7 L 133.5 -62.7 Q 132.7 -62.3 131.9 -61.1 L 131.9 -61.1 L 131.9 -61.1 Q 129.9 -58.4 128.7 -52.2 Z M 162.7 -56.1 L 162.7 -56.1 L 162.7 -56.1 Q 163.5 -58.1 163.5 -59.8 L 163.5 -59.8 L 163.5 -59.8 Q 163.5 -63 160.9 -63 L 160.9 -63 L 160.9 -63 Q 159.6 -63 158.5 -61.8 L 158.5 -61.8 L 158.5 -61.8 Q 157.3 -60.6 157.3 -59.1 L 157.3 -59.1 L 157.3 -59.1 Q 157.3 -58 158.2 -57.1 L 158.2 -57.1 L 158.2 -57.1 Q 159.5 -55.9 162.6 -54 L 162.6 -54 L 162.6 -54 Q 165.8 -52 167 -50.5 L 167 -50.5 L 167 -50.5 Q 168.3 -48.9 168.3 -46.7 L 168.3 -46.7 L 168.3 -46.7 Q 168.3 -44.5 167.2 -42.5 L 167.2 -42.5 L 167.2 -42.5 Q 166.1 -40.5 164.3 -39.1 L 164.3 -39.1 L 164.3 -39.1 Q 160.2 -36.1 153.7 -36.1 L 153.7 -36.1 L 153.7 -36.1 Q 150.2 -36.1 147.5 -37.9 L 147.5 -37.9 L 147.5 -37.9 Q 144.8 -39.7 144.8 -41.8 L 144.8 -41.8 L 144.8 -41.8 Q 144.8 -43.9 146.4 -45.1 L 146.4 -45.1 L 146.4 -45.1 Q 147.9 -46.4 150.2 -46.4 L 150.2 -46.4 L 150.2 -46.4 Q 152.4 -46.4 153.8 -45.5 L 153.8 -45.5 L 153.8 -45.5 Q 153.1 -43.7 153.1 -42.5 L 153.1 -42.5 L 153.1 -42.5 Q 153.1 -39 156.2 -39 L 156.2 -39 L 156.2 -39 Q 157.5 -39 158.3 -39.8 L 158.3 -39.8 L 158.3 -39.8 Q 159.2 -40.6 159.2 -42 L 159.2 -42 L 159.2 -42 Q 159.2 -44.8 154.5 -47.7 L 154.5 -47.7 L 154.5 -47.7 Q 150.8 -50.2 149.9 -51.1 L 149.9 -51.1 L 149.9 -51.1 Q 148.4 -52.9 148.4 -55 L 148.4 -55 L 148.4 -55 Q 148.4 -57.2 149.5 -59.2 L 149.5 -59.2 L 149.5 -59.2 Q 150.5 -61.3 152.4 -62.7 L 152.4 -62.7 L 152.4 -62.7 Q 156.3 -65.8 163.2 -65.8 L 163.2 -65.8 L 163.2 -65.8 Q 166.7 -65.8 168.8 -64.4 L 168.8 -64.4 L 168.8 -64.4 Q 170.8 -63 170.8 -60.6 L 170.8 -60.6 L 170.8 -60.6 Q 170.8 -58.2 169.4 -56.9 L 169.4 -56.9 L 169.4 -56.9 Q 168 -55.5 165.4 -55.5 L 165.4 -55.5 L 165.4 -55.5 Q 163.6 -55.5 162.7 -56.1 Z M 205.8 -54.5 L 216.7 -55.5 L 216.7 -55.5 Q 212.9 -47 212.9 -37.1 L 212.9 -37.1 L 212.9 -37.1 Q 211.4 -36.1 209.3 -36.1 L 209.3 -36.1 L 209.3 -36.1 Q 207.1 -36.1 205.8 -37.1 L 205.8 -37.1 L 205.8 -37.1 Q 204.4 -38.1 204.2 -39.1 L 204.2 -39.1 L 204.2 -39.1 Q 202.8 -37.7 200.6 -36.9 L 200.6 -36.9 L 200.6 -36.9 Q 198.4 -36.1 196.1 -36.1 L 196.1 -36.1 L 196.1 -36.1 Q 193.8 -36.1 191.8 -36.8 L 191.8 -36.8 L 191.8 -36.8 Q 189.7 -37.6 188.2 -39.3 L 188.2 -39.3 L 188.2 -39.3 Q 184.7 -42.9 184.7 -49.9 L 184.7 -49.9 L 184.7 -49.9 Q 184.7 -60.7 190.5 -67.2 L 190.5 -67.2 L 190.5 -67.2 Q 196.4 -73.9 207 -73.9 L 207 -73.9 L 207 -73.9 Q 214.3 -73.9 216.9 -70.1 L 216.9 -70.1 L 216.9 -70.1 Q 217.7 -68.9 217.7 -67.5 L 217.7 -67.5 L 217.7 -67.5 Q 217.7 -66 217 -64.8 L 217 -64.8 L 217 -64.8 Q 216.4 -63.6 215.4 -62.6 L 215.4 -62.6 L 215.4 -62.6 Q 213.1 -60.5 210.3 -60.5 L 210.3 -60.5 L 210.3 -60.5 Q 209.1 -60.5 208.1 -60.9 L 208.1 -60.9 L 208.1 -60.9 Q 208.3 -62.5 208.3 -64.4 L 208.3 -64.4 L 208.3 -64.4 Q 208.3 -66.3 208.1 -67.1 L 208.1 -67.1 L 208.1 -67.1 Q 208 -68 207.7 -68.7 L 207.7 -68.7 L 207.7 -68.7 Q 207 -70.1 205.4 -70.1 L 205.4 -70.1 L 205.4 -70.1 Q 203.9 -70.1 202.2 -68.5 L 202.2 -68.5 L 202.2 -68.5 Q 200.5 -66.8 199.1 -64.1 L 199.1 -64.1 L 199.1 -64.1 Q 196.2 -58.1 196.2 -50.8 L 196.2 -50.8 L 196.2 -50.8 Q 196.2 -47.5 197.5 -45.1 L 197.5 -45.1 L 197.5 -45.1 Q 198.9 -42.5 201.4 -42.5 L 201.4 -42.5 L 201.4 -42.5 Q 202.2 -42.5 203 -42.9 L 203 -42.9 L 203 -42.9 Q 203.8 -43.4 204.1 -43.7 L 204.1 -43.7 L 205.8 -54.5 Z M 221.7 -38.8 L 221.7 -38.8 L 221.7 -38.8 Q 220.5 -40.2 219.9 -42.4 L 219.9 -42.4 L 219.9 -42.4 Q 219.3 -44.6 219.3 -48.2 L 219.3 -48.2 L 219.3 -48.2 Q 219.3 -51.8 220.6 -55.1 L 220.6 -55.1 L 220.6 -55.1 Q 221.8 -58.4 224.1 -60.8 L 224.1 -60.8 L 224.1 -60.8 Q 228.7 -65.8 236.4 -65.8 L 236.4 -65.8 L 236.4 -65.8 Q 239.2 -65.8 241.2 -64.8 L 241.2 -64.8 L 250.4 -65.8 L 246.4 -44.7 L 246.4 -44.7 Q 246.2 -44.1 246.2 -42.9 L 246.2 -42.9 L 246.2 -42.9 Q 246.2 -41.7 247 -40.9 L 247 -40.9 L 247 -40.9 Q 247.7 -40.2 248.8 -40.1 L 248.8 -40.1 L 248.8 -40.1 Q 248.2 -38.2 246.3 -37.1 L 246.3 -37.1 L 246.3 -37.1 Q 244.3 -36.1 242.1 -36.1 L 242.1 -36.1 L 242.1 -36.1 Q 239.9 -36.1 238.4 -36.9 L 238.4 -36.9 L 238.4 -36.9 Q 236.9 -37.7 236.5 -39.1 L 236.5 -39.1 L 236.5 -39.1 Q 235.6 -37.8 233.8 -36.9 L 233.8 -36.9 L 233.8 -36.9 Q 231.9 -36.1 229.5 -36.1 L 229.5 -36.1 L 229.5 -36.1 Q 227 -36.1 225 -36.7 L 225 -36.7 L 225 -36.7 Q 223 -37.4 221.7 -38.8 Z M 233.1 -60.7 L 233.1 -60.7 L 233.1 -60.7 Q 232.5 -59.7 232 -58.1 L 232 -58.1 L 232 -58.1 Q 231.4 -56.4 230.5 -52 L 230.5 -52 L 230.5 -52 Q 229.7 -47.6 229.7 -44.5 L 229.7 -44.5 L 229.7 -44.5 Q 229.7 -41.4 230.1 -40.4 L 230.1 -40.4 L 230.1 -40.4 Q 230.6 -39.5 231.5 -39.5 L 231.5 -39.5 L 231.5 -39.5 Q 233.2 -39.5 234.5 -41.2 L 234.5 -41.2 L 234.5 -41.2 Q 235.8 -42.8 236.2 -45.7 L 236.2 -45.7 L 239.1 -61.6 L 239.1 -61.6 Q 238 -62.5 236.6 -62.5 L 236.6 -62.5 L 236.6 -62.5 Q 235.3 -62.5 234.5 -62.1 L 234.5 -62.1 L 234.5 -62.1 Q 233.8 -61.7 233.1 -60.7 Z M 266.2 -40.1 L 266.2 -40.1 L 266.2 -40.1 Q 264.5 -36.1 259.2 -36.1 L 259.2 -36.1 L 259.2 -36.1 Q 256.5 -36.1 254.8 -38 L 254.8 -38 L 254.8 -38 Q 253.4 -39.5 253.4 -41.3 L 253.4 -41.3 L 253.4 -41.3 Q 253.4 -45.4 255.2 -54.2 L 255.2 -54.2 L 259.2 -74.9 L 270.2 -76 L 264.9 -48.7 L 264.9 -48.7 Q 264 -44.7 264 -43.3 L 264 -43.3 L 264 -43.3 Q 264 -40.2 266.2 -40.1 Z M 283.7 -40.1 L 283.7 -40.1 L 283.7 -40.1 Q 282 -36.1 276.7 -36.1 L 276.7 -36.1 L 276.7 -36.1 Q 274 -36.1 272.3 -38 L 272.3 -38 L 272.3 -38 Q 270.9 -39.5 270.9 -41.3 L 270.9 -41.3 L 270.9 -41.3 Q 270.9 -45.4 272.7 -54.2 L 272.7 -54.2 L 276.7 -74.9 L 287.6 -76 L 282.4 -48.7 L 282.4 -48.7 Q 281.5 -44.7 281.5 -43.3 L 281.5 -43.3 L 281.5 -43.3 Q 281.5 -40.2 283.7 -40.1 Z M 310.2 -46.3 L 310.2 -46.3 L 310.2 -46.3 Q 311.5 -45.4 311.5 -43.3 L 311.5 -43.3 L 311.5 -43.3 Q 311.5 -41.3 310.5 -40 L 310.5 -40 L 310.5 -40 Q 309.5 -38.7 307.8 -37.8 L 307.8 -37.8 L 307.8 -37.8 Q 304.3 -36.1 300.6 -36.1 L 300.6 -36.1 L 300.6 -36.1 Q 296.9 -36.1 294.7 -36.9 L 294.7 -36.9 L 294.7 -36.9 Q 292.5 -37.7 291 -39.2 L 291 -39.2 L 291 -39.2 Q 288.2 -42.1 288.2 -47.3 L 288.2 -47.3 L 288.2 -47.3 Q 288.2 -55.5 292.6 -60.4 L 292.6 -60.4 L 292.6 -60.4 Q 297.4 -65.8 305.6 -65.8 L 305.6 -65.8 L 305.6 -65.8 Q 310.8 -65.8 313.3 -63.6 L 313.3 -63.6 L 313.3 -63.6 Q 315.2 -62 315.2 -59.3 L 315.2 -59.3 L 315.2 -59.3 Q 315.2 -49.8 298.8 -49.8 L 298.8 -49.8 L 298.8 -49.8 Q 298.6 -48.4 298.6 -47.2 L 298.6 -47.2 L 298.6 -47.2 Q 298.6 -44.8 299.7 -43.8 L 299.7 -43.8 L 299.7 -43.8 Q 300.8 -42.9 302.8 -42.9 L 302.8 -42.9 L 302.8 -42.9 Q 304.9 -42.9 307.1 -43.8 L 307.1 -43.8 L 307.1 -43.8 Q 309.2 -44.8 310.2 -46.3 Z M 299.1 -52.2 L 299.1 -52.2 L 299.1 -52.2 Q 303 -52.2 305.2 -54.5 L 305.2 -54.5 L 305.2 -54.5 Q 307.4 -56.8 307.4 -60.4 L 307.4 -60.4 L 307.4 -60.4 Q 307.4 -61.7 307 -62.3 L 307 -62.3 L 307 -62.3 Q 306.5 -63 305.6 -63 L 305.6 -63 L 305.6 -63 Q 304.7 -63 303.9 -62.7 L 303.9 -62.7 L 303.9 -62.7 Q 303.1 -62.3 302.3 -61.1 L 302.3 -61.1 L 302.3 -61.1 Q 300.3 -58.4 299.1 -52.2 Z M 333.9 -52.3 L 333.9 -52.3 L 333.9 -52.3 Q 335.9 -55.8 335.9 -59.3 L 335.9 -59.3 L 335.9 -59.3 Q 335.9 -61.6 334.2 -61.6 L 334.2 -61.6 L 334.2 -61.6 Q 332.9 -61.6 331.5 -59.4 L 331.5 -59.4 L 331.5 -59.4 Q 330.1 -57.2 329.7 -54.3 L 329.7 -54.3 L 326.9 -37.1 L 315.7 -36.1 L 321.2 -64.7 L 330.1 -65.8 L 329.2 -60.3 L 329.2 -60.3 Q 331.8 -65.8 337.8 -65.8 L 337.8 -65.8 L 337.8 -65.8 Q 340.9 -65.8 342.6 -64.1 L 342.6 -64.1 L 342.6 -64.1 Q 344.3 -62.5 344.3 -59.2 L 344.3 -59.2 L 344.3 -59.2 Q 344.3 -55.9 342.1 -53.8 L 342.1 -53.8 L 342.1 -53.8 Q 339.9 -51.7 336.2 -51.7 L 336.2 -51.7 L 336.2 -51.7 Q 334.6 -51.7 333.9 -52.3 Z M 362.3 -43.2 L 362.3 -43.2 L 362.3 -43.2 Q 359.5 -40.3 354.4 -40.3 L 354.4 -40.3 L 354.4 -40.3 Q 348 -40.3 346.6 -45 L 346.6 -45 L 346.6 -45 Q 346.2 -46.4 346.2 -48 L 346.2 -48 L 346.2 -48 Q 346.2 -49.6 346.5 -51.2 L 346.5 -51.2 L 349 -64.7 L 360 -65.8 L 357 -50.1 L 357 -50.1 Q 356.9 -49.3 356.8 -48.6 L 356.8 -48.6 L 356.8 -48.6 Q 356.6 -47.8 356.6 -47.1 L 356.6 -47.1 L 356.6 -47.1 Q 356.6 -46.3 356.9 -45.8 L 356.9 -45.8 L 356.9 -45.8 Q 357.1 -45.2 357.5 -44.9 L 357.5 -44.9 L 357.5 -44.9 Q 358.2 -44.5 359.3 -44.5 L 359.3 -44.5 L 359.3 -44.5 Q 360.5 -44.5 361.5 -45.9 L 361.5 -45.9 L 361.5 -45.9 Q 362.5 -47.3 363 -49.7 L 363 -49.7 L 365.9 -64.7 L 376.6 -65.8 L 372.5 -44.5 L 372.5 -44.5 Q 370.5 -34.2 366.4 -30.1 L 366.4 -30.1 L 366.4 -30.1 Q 364.3 -28 361.6 -27.1 L 361.6 -27.1 L 361.6 -27.1 Q 358.9 -26.3 355.4 -26.3 L 355.4 -26.3 L 355.4 -26.3 Q 349.7 -26.3 346.5 -28.1 L 346.5 -28.1 L 346.5 -28.1 Q 343.2 -29.9 343.2 -32.8 L 343.2 -32.8 L 343.2 -32.8 Q 343.2 -35 344.9 -36.3 L 344.9 -36.3 L 344.9 -36.3 Q 346.6 -37.6 349.2 -37.6 L 349.2 -37.6 L 349.2 -37.6 Q 351.4 -37.6 353.1 -36.6 L 353.1 -36.6 L 353.1 -36.6 Q 354.2 -36 354.7 -35.3 L 354.7 -35.3 L 354.7 -35.3 Q 353.4 -34.2 353.4 -32.4 L 353.4 -32.4 L 353.4 -32.4 Q 353.4 -30 355.6 -30 L 355.6 -30 L 355.6 -30 Q 359.1 -30 361.2 -38.2 L 361.2 -38.2 L 361.2 -38.2 Q 361.8 -40.7 362.3 -43.2 Z" fill="url(#editing-gradient-gradient)"></path></g></g><style>text {
  font-size: 64px;
  font-family: Arial Black;
  dominant-baseline: central;
  text-anchor: middle;
}</style></svg>